<svg width="400" height="400" viewBox="0 0 400 400" fill="none" xmlns="http://www.w3.org/2000/svg">
<path d="M338 347.39H62C55.37 347.39 50 342.02 50 335.39V97.79C50 91.16 55.37 85.79 62 85.79H338C344.63 85.79 350 91.16 350 97.79V335.39C350 342.01 344.63 347.39 338 347.39Z" stroke="#191919" stroke-width="12" stroke-miterlimit="10" stroke-linecap="round" stroke-linejoin="round"/>
<path d="M57.2 86.55L115.03 51.57C119.42 49.32 124.28 48.15 129.21 48.15H270.81C275.72 48.15 280.56 49.31 284.94 51.55L342.79 86.55" stroke="#191919" stroke-width="12" stroke-miterlimit="10" stroke-linecap="round" stroke-linejoin="round"/>
<path d="M250.22 237.17L200 287.39L149.78 237.17" stroke="#6A0BFF" stroke-width="12" stroke-miterlimit="10" stroke-linecap="round" stroke-linejoin="round"/>
<path d="M200 287.39V145.79" stroke="#6A0BFF" stroke-width="12" stroke-miterlimit="10" stroke-linecap="round" stroke-linejoin="round"/>
</svg>
